<svg width="100" height="100" viewBox="0 0 100 100" fill="none" xmlns="http://www.w3.org/2000/svg">
<path d="M87.3047 30.198V0H12.6953V30.198L0 39.9637V100H100V39.9637L87.3047 30.198ZM94.1406 42.8488V50.9002L87.3047 55.0982V37.5904L94.1406 42.8488ZM81.4453 5.85938V58.6965L50.0205 77.9947L18.5547 58.1488V5.85938H81.4453ZM12.6953 37.5904V54.4533L5.85938 50.1418V42.8488L12.6953 37.5904ZM5.85938 94.1406V57.0693L49.9795 84.8961L94.1406 57.7762V94.1406H5.85938Z" fill="#FFCC63"/>
<path d="M49.944 51.6665C46.5517 51.6665 43.7917 49.4089 43.7917 46.6339H37.9323C37.9323 51.7237 41.8024 56.0093 47.0143 57.1981V61.7186H52.8737V57.1981C58.0856 56.0093 61.9558 51.7237 61.9558 46.6339C61.9558 40.6281 56.5673 35.7421 49.944 35.7421C46.5517 35.7421 43.7917 33.4845 43.7917 30.7097C43.7917 27.9349 46.5517 25.6771 49.944 25.6771C53.3364 25.6771 56.0964 27.9347 56.0964 30.7097H61.9558C61.9558 25.6199 58.0856 21.3344 52.8737 20.1455V15.625H47.0143V20.1455C41.8024 21.3344 37.9323 25.6199 37.9323 30.7097C37.9323 36.7156 43.3208 41.6015 49.944 41.6015C53.3364 41.6015 56.0964 43.8591 56.0964 46.6339C56.0964 49.4087 53.3364 51.6665 49.944 51.6665Z" fill="#FFCC63"/>
</svg>
