<svg width="24" height="25" viewBox="0 0 24 25" fill="none" xmlns="http://www.w3.org/2000/svg">
<path d="M20.4189 3.66807C18.1597 1.39654 15.156 0.145508 11.9611 0.145508C8.76613 0.145508 5.76244 1.39654 3.50329 3.66807C1.24419 5.93965 0 8.95991 0 12.1724C0 15.3849 1.24419 18.4051 3.50329 20.6767C5.76244 22.9483 8.76618 24.1993 11.9611 24.1993C15.156 24.1993 18.1597 22.9483 20.4189 20.6767C22.678 18.4051 23.9222 15.3849 23.9222 12.1724C23.9222 8.95991 22.678 5.9397 20.4189 3.66807ZM17.6756 9.31005L10.9912 16.0313C10.8543 16.1689 10.675 16.2377 10.4956 16.2377C10.3163 16.2377 10.1369 16.1689 10 16.0313L6.24659 12.2572C5.97289 11.9821 5.97289 11.5359 6.24659 11.2607C6.52025 10.9855 6.96402 10.9855 7.23772 11.2607L10.4956 14.5364L16.6845 8.31346C16.9581 8.03825 17.4019 8.03825 17.6756 8.31346C17.9493 8.58867 17.9493 9.03484 17.6756 9.31005Z" fill="#FFCC63"/>
</svg>
