<svg width="100" height="100" viewBox="0 0 100 100" fill="none" xmlns="http://www.w3.org/2000/svg">
<path d="M50 0C22.3877 0 0 22.3877 0 50C0 77.6118 22.3877 100 50 100C77.6123 100 99.9996 77.6116 99.9996 50C99.9998 22.3877 77.6123 0 50 0ZM55.1252 93.5912C55.1252 93.5912 54.7856 89.2033 53.1252 87.4997C51.4216 85.7517 48.5786 85.7517 46.875 87.4997C45.2146 89.2033 44.875 93.5912 44.875 93.5912C23.2504 92.0542 7.94704 76.7502 6.40895 55.1256C6.40895 55.1256 10.7964 54.7858 12.4999 53.1256C14.248 51.4221 14.248 48.5789 12.4999 46.8754C10.7964 45.2153 6.40895 44.8754 6.40895 44.8754C7.94704 23.2502 23.2504 7.94684 44.875 6.40874C44.875 6.40874 45.2149 10.7962 46.875 12.4997C48.5785 14.2478 51.4217 14.2478 53.1252 12.4997C54.7853 10.7962 55.1252 6.40895 55.1252 6.40895C76.75 7.94684 91.9621 23.3748 93.5 45C93.5 45 89.2038 45.2156 87.5003 46.8756C85.7522 48.5791 85.7522 51.4224 87.5003 53.1259C89.2038 54.7858 93.5 55 93.5 55C91.9619 76.6244 76.7498 92.0542 55.1252 93.5912ZM73.0042 36.7186C73.4312 37.4636 73.1752 38.4222 72.4308 38.8554L55.9242 48.3826C56.0666 48.9137 56.2503 49.4266 56.2503 50C56.2503 53.4546 53.4513 56.2496 50.0002 56.2496C46.5481 56.2496 43.75 53.4546 43.75 50L26.7885 40.2098C25.2929 39.3436 24.7805 37.4329 25.6438 35.9377C26.5041 34.4363 28.4177 33.9239 29.9131 34.7908L46.9727 44.6417C47.8818 44.1292 48.8768 43.7506 50.0002 43.7506C51.746 43.7506 53.3167 44.4707 54.4527 45.6306L70.8678 36.1452C71.6007 35.7116 72.5586 35.968 73.0042 36.7186Z" fill="#FFCC63"/>
</svg>
