<svg width="123" height="90" viewBox="0 0 123 90" fill="none" xmlns="http://www.w3.org/2000/svg">
<path d="M70.1365 41.7021H68.1407V35.9139C68.1407 28.8194 61.4073 22.0754 54.3394 22.0754C47.2715 22.0754 40.538 28.8197 40.538 35.9139V41.7021H38.5428C36.6435 41.7021 35.6604 42.4991 35.6604 44.581V72.6871C35.6604 74.5935 36.6435 75.566 38.5428 75.566C38.5428 75.566 68.2372 75.566 70.1365 75.566C72.0358 75.566 73.0189 74.5935 73.0189 72.6871C73.0189 70.7807 73.0189 44.581 73.0189 44.581C73.0189 42.9854 72.0358 41.7021 70.1365 41.7021ZM45.3198 35.9142C45.3198 30.9223 49.366 26.861 54.3394 26.861C59.3128 26.861 63.359 30.9223 63.359 35.9142V42.6749H45.3198V35.9142ZM68.2372 70.781H40.4421V46.4876H68.2372V70.781Z" fill="#FFCC63"/>
<path d="M52.6852 61.512V65.4531C52.6852 66.349 53.4259 67.0754 54.3395 67.0754C55.2531 67.0754 55.9938 66.349 55.9938 65.4531V61.512C57.9929 60.8367 59.4339 58.975 59.4339 56.7881C59.4339 54.0335 57.1486 51.7924 54.3395 51.7924C51.5304 51.7924 49.2453 54.0335 49.2453 56.7881C49.2453 58.975 50.6861 60.8369 52.6852 61.512ZM54.3395 55.0371C55.3242 55.0371 56.1253 55.8228 56.1253 56.7884C56.1253 57.7539 55.3242 58.5396 54.3395 58.5396C53.3548 58.5396 52.5539 57.7539 52.5539 56.7884C52.5539 55.8228 53.3548 55.0371 54.3395 55.0371Z" fill="#FFCC63"/>
<path d="M121.015 25.5053C119.908 24.0914 118.247 23.2805 116.458 23.2805H109.149V15.6237C109.149 12.6443 106.741 10.2206 103.782 10.2206H52.7019C52.3507 10.2206 52.0357 9.99713 51.9172 9.66438L49.7219 3.47992C48.9832 1.39827 47.0115 0 44.8155 0H19.2074C17.0118 0 15.04 1.39855 14.3011 3.47992L12.1054 9.66467C11.9872 9.99741 11.6719 10.2209 11.3211 10.2209H5.36749C2.40805 10.2203 0 12.6443 0 15.6237V84.5969C0 87.5762 2.40805 90 5.36749 90H103.782C106.635 90 108.968 87.7463 109.133 84.9157L122.102 30.486C122.519 28.7345 122.123 26.9192 121.015 25.5053ZM103.966 84.5966C103.966 85.2277 103.782 84.7847 103.782 84.7847H6.32012C5.69315 84.7847 6.13585 84.5966 6.13585 84.5966L5.18322 15.6237C5.18322 14.9926 4.7408 15.4356 5.36749 15.4356H11.3211C13.455 15.4356 16.3238 13.1202 17.0419 11.0973L19.2375 4.91254C19.3766 4.52131 18.7945 5.21471 19.2074 5.21471H44.8155C45.2284 5.21471 44.6464 4.52131 44.7854 4.91282L46.9808 11.0976C47.6992 13.1205 50.568 15.4356 52.7019 15.4356H103.782C104.409 15.4356 103.966 14.9929 103.966 15.6237V84.5966ZM117.988 29.4925L109.149 66.5891V27.5389H116.458C117.122 27.5389 117.517 27.9168 117.694 28.1423C117.87 28.3674 118.143 28.8424 117.988 29.4925Z" fill="#FFCC63"/>
</svg>
