<svg width="100" height="100" viewBox="0 0 100 100" fill="none" xmlns="http://www.w3.org/2000/svg">
<path d="M53.7234 47.4469H46.2978C43.2127 47.4469 40.7021 44.9362 40.7021 41.8511C40.7021 38.766 43.2127 36.2554 46.2978 36.2554H59.4042C60.8085 36.2554 61.9574 35.1065 61.9574 33.7022C61.9574 32.2979 60.8085 31.149 59.4042 31.149H52.5744V25.9362C52.5744 24.532 51.4255 23.3831 50.0212 23.3831C48.617 23.3831 47.468 24.532 47.468 25.9362V31.149H46.2978C40.4042 31.149 35.5957 35.9575 35.5957 41.8511C35.5957 47.7448 40.4042 52.5533 46.2978 52.5533H53.7234C56.8085 52.5533 59.3191 55.0639 59.3191 58.149C59.3191 61.2341 56.8085 63.7448 53.7234 63.7448H40.3829C38.9787 63.7448 37.8297 64.8937 37.8297 66.298C37.8297 67.7022 38.9787 68.8511 40.3829 68.8511H47.4468V74.1703C47.4468 75.5746 48.5957 76.7235 50 76.7235C51.4042 76.7235 52.5531 75.5746 52.5531 74.1703V68.8511H53.7872C53.8085 68.8511 53.8297 68.8511 53.851 68.8511C59.6808 68.766 64.4042 64.0001 64.4042 58.149C64.4042 52.2341 59.617 47.4469 53.7234 47.4469Z" fill="#FFCC63"/>
<path d="M85.3617 14.6383C75.9149 5.19149 63.3617 0 50 0C36.6383 0 24.0851 5.19149 14.6383 14.6383C5.19149 24.0851 0 36.6383 0 50C0 63.3617 5.19149 75.9149 14.6383 85.3617C24.0851 94.8085 36.6383 100 50 100C63.3617 100 75.9149 94.8085 85.3617 85.3617C94.8085 75.9149 100 63.3617 100 50C100 36.6383 94.8085 24.0851 85.3617 14.6383ZM50 94.8936C25.2553 94.8936 5.10638 74.7447 5.10638 50C5.10638 25.2553 25.2553 5.10638 50 5.10638C74.7447 5.10638 94.8936 25.2553 94.8936 50C94.8936 74.7447 74.7447 94.8936 50 94.8936Z" fill="#FFCC63"/>
</svg>
