<svg width="23" height="23" viewBox="0 0 23 23" fill="none" xmlns="http://www.w3.org/2000/svg">
<path d="M20.4035 0.616455H3.4406C2.00897 0.616455 0.844238 1.77821 0.844238 3.20619V20.1258C0.844238 21.5538 2.00897 22.7155 3.4406 22.7155H20.4035C21.8351 22.7155 22.9998 21.5538 22.9998 20.1258V3.20619C22.9998 1.77821 21.8351 0.616455 20.4035 0.616455ZM21.2689 20.1258C21.2689 20.6018 20.8807 20.989 20.4035 20.989H15.4704V13.9536H18.1442L18.586 11.2775H15.4704V9.42155C15.4704 8.68887 16.034 8.12669 16.7686 8.12669H18.5428V5.45063H16.7686C14.565 5.45063 12.7884 7.23107 12.7884 9.42906V11.2775H10.1911V13.9536H12.7884V20.989H3.4406C2.96339 20.989 2.57515 20.6018 2.57515 20.1258V3.20619C2.57515 2.7302 2.96339 2.34294 3.4406 2.34294H20.4035C20.8807 2.34294 21.2689 2.7302 21.2689 3.20619V20.1258Z" fill="#FFCC63"/>
</svg>
