<svg width="23" height="23" viewBox="0 0 23 23" fill="none" xmlns="http://www.w3.org/2000/svg">
<path d="M15.2537 0.616455H6.94536C3.12213 0.616455 0.0217285 3.70894 0.0217285 7.52241V15.8096C0.0217285 19.623 3.12213 22.7155 6.94536 22.7155H15.2537C19.0769 22.7155 22.1773 19.623 22.1773 15.8096V7.52241C22.1773 3.70894 19.0769 0.616455 15.2537 0.616455ZM20.1003 15.8096C20.1003 18.4753 17.9262 20.6437 15.2537 20.6437H6.94536C4.27284 20.6437 2.09882 18.4753 2.09882 15.8096V7.52241C2.09882 4.85671 4.27284 2.68824 6.94536 2.68824H15.2537C17.9262 2.68824 20.1003 4.85671 20.1003 7.52241V15.8096Z" fill="#FFCC63"/>
<path d="M11.0997 6.14185C8.04083 6.14185 5.56079 8.61549 5.56079 11.6665C5.56079 14.7174 8.04083 17.1911 11.0997 17.1911C14.1586 17.1911 16.6386 14.7174 16.6386 11.6665C16.6386 8.61549 14.1586 6.14185 11.0997 6.14185ZM11.0997 15.1193C9.19154 15.1193 7.63788 13.5697 7.63788 11.6665C7.63788 9.76185 9.19154 8.21358 11.0997 8.21358C13.0078 8.21358 14.5615 9.76185 14.5615 11.6665C14.5615 13.5697 13.0078 15.1193 11.0997 15.1193Z" fill="#FFCC63"/>
<path d="M17.0537 6.4633C17.4613 6.4633 17.7918 6.13371 17.7918 5.72713C17.7918 5.32056 17.4613 4.99097 17.0537 4.99097C16.6461 4.99097 16.3157 5.32056 16.3157 5.72713C16.3157 6.13371 16.6461 6.4633 17.0537 6.4633Z" fill="#FFCC63"/>
</svg>
