<svg width="134" height="103" viewBox="0 0 134 103" fill="none" xmlns="http://www.w3.org/2000/svg">
<path d="M46.2539 63.3111H38.645C36.0021 63.3111 33.4667 64.3574 31.5929 66.2212L19.5549 78.1949C18.2935 79.4497 16.1445 78.5562 16.1445 76.777V64.3111C16.1445 63.7588 15.6968 63.3111 15.1445 63.3111H13C7.47715 63.3111 3 58.834 3 53.3111V13C3 7.47714 7.47715 3 13 3H78.6512C84.1741 3 88.6512 7.47715 88.6512 13V24.4128" stroke="#FFCC63" stroke-width="5"/>
<path d="M131.477 34.4128V74.7239C131.477 80.2468 127 84.7239 121.477 84.7239H119.332C118.78 84.7239 118.332 85.1717 118.332 85.7239V98.1898C118.332 99.969 116.183 100.863 114.922 99.6078L102.884 87.634C101.01 85.7702 98.4747 84.7239 95.8318 84.7239H55.8256C50.3027 84.7239 45.8256 80.2468 45.8256 74.724V34.4128C45.8256 28.89 50.3028 24.4128 55.8256 24.4128H121.477C127 24.4128 131.477 28.89 131.477 34.4128Z" stroke="#FFCC63" stroke-width="5"/>
</svg>
