<svg width="108" height="90" viewBox="0 0 108 90" fill="none" xmlns="http://www.w3.org/2000/svg">
<path d="M95.6373 12.5581H74.6716L72.6327 6.44023C71.3487 2.58802 67.7584 0 63.6989 0H43.4518C39.3923 0 35.802 2.58802 34.5181 6.44023L32.4791 12.5581H27.4174V7.32558C27.4174 3.28626 24.1318 0 20.0932 0H15.9079C11.8694 0 8.58371 3.28626 8.58371 7.32558V12.9374C3.65179 14.2367 0.00390625 18.7347 0.00390625 24.0698V78.4884C0.00390625 84.8359 5.16706 90 11.5134 90H95.6373C101.984 90 107.147 84.8359 107.147 78.4884V24.0698C107.147 17.7223 101.984 12.5581 95.6373 12.5581ZM14.8616 7.32558C14.8616 6.74853 15.331 6.27907 15.9079 6.27907H20.0932C20.6701 6.27907 21.1395 6.74853 21.1395 7.32558V12.5581H14.8616V7.32558ZM100.869 78.4884C100.869 81.3736 98.522 83.7209 95.6373 83.7209H11.5134C8.6287 83.7209 6.28181 81.3736 6.28181 78.4884V24.0698C6.28181 21.1845 8.6287 18.8372 11.5134 18.8372H34.7416C36.0926 18.8372 37.2921 17.9726 37.7194 16.6904L40.4738 8.42588C40.9019 7.14181 42.0985 6.27907 43.4518 6.27907H63.6989C65.0522 6.27907 66.249 7.14181 66.6767 8.42567L69.431 16.6904C69.8585 17.9726 71.058 18.8372 72.409 18.8372H95.6373C98.522 18.8372 100.869 21.1845 100.869 24.0698V78.4884Z" fill="#FFCC63"/>
<path d="M91.2424 31.3951C92.976 31.3951 94.3814 29.9895 94.3814 28.2556C94.3814 26.5218 92.976 25.1162 91.2424 25.1162C89.5089 25.1162 88.1035 26.5218 88.1035 28.2556C88.1035 29.9895 89.5089 31.3951 91.2424 31.3951Z" fill="#FFCC63"/>
<path d="M22.1858 25.1162H15.9079C14.1744 25.1162 12.769 26.5218 12.769 28.2556C12.769 29.9894 14.1744 31.3951 15.9079 31.3951H22.1858C23.9194 31.3951 25.3248 29.9894 25.3248 28.2556C25.3248 26.5218 23.9194 25.1162 22.1858 25.1162Z" fill="#FFCC63"/>
<path d="M53.5753 77.4419C37.998 77.4419 25.3248 64.7664 25.3248 49.1863C25.3248 33.6061 37.998 20.9307 53.5753 20.9307C69.1527 20.9307 81.8259 33.6061 81.8259 49.1863C81.8259 64.7664 69.1527 77.4419 53.5753 77.4419ZM53.5753 27.2097C41.4596 27.2097 31.6027 37.0684 31.6027 49.1863C31.6027 61.3042 41.4596 71.1629 53.5753 71.1629C65.6911 71.1629 75.548 61.3042 75.548 49.1863C75.548 37.0684 65.6911 27.2097 53.5753 27.2097Z" fill="#FFCC63"/>
<path d="M53.5753 64.8836C44.9212 64.8836 37.8806 57.8416 37.8806 49.1859C37.8806 40.5302 44.9212 33.4883 53.5753 33.4883C62.2294 33.4883 69.27 40.5302 69.27 49.1859C69.27 57.8416 62.2294 64.8836 53.5753 64.8836ZM53.5753 39.7673C48.3828 39.7673 44.1585 43.9925 44.1585 49.1859C44.1585 54.3793 48.3828 58.6045 53.5753 58.6045C58.7677 58.6045 62.9921 54.3793 62.9921 49.1859C62.9921 43.9925 58.7677 39.7673 53.5753 39.7673Z" fill="#FFCC63"/>
</svg>
