<svg width="30" height="30" viewBox="0 0 30 30" fill="none" xmlns="http://www.w3.org/2000/svg">
<path d="M30 0C26.031 0 19.0066 0 15 0C10.9933 0 5.9535 0 0 0C0 5.98049 0 11.0351 0 15.0569C0 19.0788 0 24.9566 0 30C5.19456 30 10.9678 30 14.9744 30C18.9811 30 27.1649 30 29.9999 30C29.9999 22.0755 30 19.0788 30 15.0569C30 11.0351 30 4.5283 30 0ZM22.1664 11.4734L13.7837 19.888C13.612 20.0603 13.3871 20.1464 13.1622 20.1464C12.9373 20.1464 12.7123 20.0603 12.5407 19.888L7.83363 15.1631C7.49039 14.8187 7.49039 14.2601 7.83363 13.9155C8.17682 13.5709 8.73334 13.5709 9.07658 13.9155L13.1622 18.0166L20.9234 10.2258C21.2666 9.88122 21.8231 9.88122 22.1664 10.2258C22.5096 10.5703 22.5096 11.1289 22.1664 11.4734Z" fill="#FFCC63"/>
</svg>
