<svg width="85" height="100" viewBox="0 0 85 100" fill="none" xmlns="http://www.w3.org/2000/svg">
<path d="M84.9009 27.1326L84.8979 27.0547C84.8545 26.0942 84.8256 25.078 84.808 23.9473C84.7266 18.4335 80.3515 13.8727 74.847 13.5645C63.3705 12.9228 54.4924 9.17376 46.9066 1.76639L46.8419 1.70459C44.3676 -0.568198 40.6353 -0.568198 38.1603 1.70459L38.0956 1.76639C30.5098 9.17376 21.6317 12.9228 10.1552 13.5652C4.65149 13.8727 0.275644 18.4335 0.194159 23.9481C0.177405 25.0711 0.147704 26.0873 0.104296 27.0547L0.0997271 27.2356C-0.123406 38.9596 -0.400609 53.5508 4.47176 66.7946C7.15088 74.0777 11.2084 80.4085 16.5308 85.6125C22.5928 91.539 30.5326 96.2441 40.1296 99.5964C40.4419 99.7055 40.7663 99.794 41.0968 99.8604C41.5629 99.9535 42.032 100 42.5011 100C42.9702 100 43.4401 99.9535 43.9054 99.8604C44.2359 99.794 44.5626 99.7047 44.8764 99.5949C54.4619 96.2364 62.3934 91.5291 68.45 85.6034C73.7702 80.3978 77.8277 74.0654 80.5091 66.7809C85.3998 53.4974 85.1233 38.8787 84.9009 27.1326ZM75.0138 64.7507C69.8749 78.7094 59.3846 88.2958 42.9436 94.0559C42.8849 94.0758 42.8225 94.0933 42.7577 94.1063C42.5879 94.1399 42.415 94.1399 42.2429 94.1055C42.179 94.0926 42.1165 94.0758 42.0586 94.0559C25.6001 88.3064 15.1029 78.7255 9.96784 64.766C5.47701 52.5582 5.73136 39.1641 5.95602 27.3477L5.95754 27.2821C6.00323 26.2666 6.0337 25.2031 6.05045 24.0343C6.087 21.586 8.03352 19.5604 10.4819 19.4238C16.9764 19.0607 22.6819 17.8033 27.9243 15.5801C33.16 13.36 37.81 10.2304 42.1386 6.01291C42.3587 5.82675 42.6443 5.82599 42.8636 6.01291C47.193 10.2304 51.843 13.36 57.0779 15.5801C62.3203 17.8033 68.0258 19.0607 74.5211 19.4238C76.9694 19.5604 78.916 21.586 78.9518 24.035C78.9693 25.21 78.9997 26.2735 79.0454 27.2821C79.2693 39.1122 79.5176 52.517 75.0138 64.7507Z" fill="#FFCC63"/>
<path d="M42.4998 25.0806C28.7827 25.0806 17.6238 36.2605 17.6238 50.0016C17.6238 63.7435 28.7827 74.9235 42.4998 74.9235C56.216 74.9235 67.3757 63.7435 67.3757 50.0016C67.3757 36.2605 56.216 25.0806 42.4998 25.0806ZM42.4998 69.055C32.0125 69.055 23.4808 60.5079 23.4808 50.0016C23.4808 39.4953 32.0125 30.9483 42.4998 30.9483C52.9863 30.9483 61.5179 39.4953 61.5179 50.0016C61.5179 60.5079 52.9863 69.055 42.4998 69.055Z" fill="#FFCC63"/>
<path d="M49.6491 42.2648L38.0949 53.8401L34.9589 50.6983C33.815 49.5524 31.9606 49.5524 30.8168 50.6983C29.6737 51.8443 29.6737 53.702 30.8168 54.8472L36.0243 60.0642C36.5962 60.6372 37.3456 60.9233 38.0949 60.9233C38.8443 60.9233 39.5936 60.6372 40.1656 60.0642L53.7912 46.4137C54.9343 45.2677 54.9343 43.41 53.7912 42.2648C52.6474 41.1181 50.793 41.1181 49.6491 42.2648Z" fill="#FFCC63"/>
</svg>
