<svg width="113" height="100" viewBox="0 0 113 100" fill="none" xmlns="http://www.w3.org/2000/svg">
<path d="M108.949 42.3233C114.171 32.4419 113.536 22.0205 107.11 12.1819C102.369 4.92268 96.178 0.584557 95.917 0.403576C95.0903 -0.168979 93.9851 -0.129097 93.2025 0.502677C85.5959 6.64336 77.219 16.8711 69.6148 29.302C62.6209 40.735 57.2845 52.5218 55.3396 60.8315C53.9839 66.6241 50.8534 69.4398 45.7705 69.4398H45.7696C41.8566 69.4395 38.2675 67.742 38.2361 67.7269C37.6913 67.4632 37.0638 67.4278 36.4936 67.6297C36.2598 67.7121 34.8047 68.2264 32.6395 68.9947C32.7879 68.0067 32.7341 66.9942 32.4426 66.0032C31.4875 62.761 28.2495 60.5825 24.3857 60.5825C23.3811 60.5825 22.3719 60.73 21.3857 61.0203C19.1118 61.6902 17.1715 63.061 15.9222 64.8802C14.593 66.8163 14.1821 69.1198 14.7952 71.2C15.1886 72.5361 15.9738 73.6872 17.0268 74.584C12.3131 76.292 8.06713 77.8583 6.10292 78.655C1.88686 80.3651 0 84.3446 0 87.5298C0 92.9058 4.93062 95.5637 7.92663 96.3133C9.18897 96.7317 19.7868 100.001 42.5812 100C45.4475 100 48.4291 99.9471 51.4426 99.8429C68.9507 99.2371 71.4624 90.2418 74.1215 80.718C74.5152 79.3083 74.9219 77.8507 75.3851 76.3766C77.6931 69.0234 85.0626 60.7756 89.627 56.1758V95.0464C89.627 96.2982 90.6416 97.3125 91.8931 97.3125H100.545C101.154 97.3125 101.737 97.0674 102.164 96.6326C102.59 96.1979 102.823 95.6099 102.811 95.0014C102.806 94.7745 102.363 72.2059 102.809 63.1528C103.224 54.7392 108.58 43.1146 108.949 42.3233ZM98.2818 62.9293C97.9093 70.4994 98.1353 86.7258 98.2377 92.7804H94.1591V50.8748C94.1591 49.9847 93.6379 49.1771 92.827 48.81C92.016 48.4438 91.0652 48.5852 90.3966 49.1731C89.7636 49.73 74.8506 62.9462 71.0608 75.0191C70.5765 76.5624 70.1599 78.0553 69.7568 79.4989C67.0889 89.0544 65.4785 94.8222 51.2861 95.3135C48.3248 95.4159 45.3962 95.4679 42.5815 95.4679C19.6512 95.4685 9.40349 92.0289 9.30741 91.996C9.2349 91.9706 9.16088 91.9492 9.08594 91.931C9.04032 91.9202 4.53209 90.7539 4.53209 87.5298C4.53209 87.3932 4.56926 84.1679 7.80638 82.8548C10.3513 81.8224 17.0268 79.3935 23.456 77.0845C23.9165 77.2715 25.0305 77.7223 25.1429 77.771C26.9067 78.5348 36.2063 82.3538 45.7902 82.3538C49.3974 82.3538 53.0467 81.8124 56.3472 80.3633C61.4504 78.123 65.0038 74.0652 66.9094 68.3025C70.4653 57.5494 76.4374 45.2329 83.2945 34.5118C89.9367 24.1267 96.5484 16.5683 102.123 12.9439C102.528 13.4944 102.928 14.066 103.316 14.66C108.874 23.1698 109.413 31.7793 104.919 40.2488C104.903 40.2794 104.888 40.3099 104.873 40.3407C104.623 40.8679 98.755 53.3517 98.2818 62.9293ZM37.1659 72.1989C38.7186 72.8246 42.0687 73.9716 45.7693 73.9719C45.7693 73.9719 45.7699 73.9719 45.7705 73.9719C52.9593 73.9719 57.925 69.6721 59.7524 61.8642C63.3732 46.3935 79.5232 18.277 94.687 5.16802C95.7886 6.06416 97.4476 7.51745 99.223 9.44148C93.1826 13.5488 86.2714 21.4467 79.4769 32.0705C72.425 43.0962 66.2765 55.784 62.6067 66.8803C61.102 71.4315 58.4613 74.4831 54.5347 76.2101C46.5186 79.7355 35.3654 76.6694 29.9445 74.7641C33.197 73.6048 35.8727 72.6567 37.1659 72.1989ZM19.6584 67.4453C20.3101 66.4957 21.4066 65.7389 22.6662 65.3675C23.2364 65.1995 23.8146 65.1143 24.3854 65.1143C26.2218 65.1143 27.7129 65.9863 28.0948 67.2834C28.6108 69.037 26.9971 71.1221 24.5712 71.8366C24.0014 72.0043 23.4231 72.0892 22.8526 72.0892C21.0153 72.0892 19.5243 71.2176 19.1424 69.9193C18.8336 68.8708 19.333 67.9191 19.6584 67.4453Z" fill="#FFCC63"/>
</svg>
