<svg width="43" height="38" viewBox="0 0 43 38" fill="none" xmlns="http://www.w3.org/2000/svg">
<path d="M42.336 1.01856C41.8107 0.361661 41.024 0 40.1206 0C39.6294 0 39.1091 0.10568 38.5744 0.314692L2.17578 14.5238C0.244146 15.2777 -0.0160076 16.4089 0.000723614 17.0162C0.0174548 17.6234 0.339941 18.7379 2.31029 19.3791C2.3221 19.3827 2.33391 19.3864 2.34572 19.3898L9.89577 21.5993L13.9788 33.5395C14.5356 35.1673 15.7852 36.1785 17.2404 36.1785C18.158 36.1785 19.0605 35.7853 19.8505 35.0419L24.5205 30.6446L31.294 36.2221C31.2947 36.2228 31.2957 36.2231 31.2963 36.2238L31.3606 36.2768C31.3665 36.2815 31.3727 36.2865 31.3787 36.2912C32.1316 36.8884 32.9534 37.2038 33.7561 37.2041H33.7565C35.3249 37.2041 36.5739 36.0168 36.9377 34.1796L42.9015 4.06449C43.141 2.85571 42.9403 1.77408 42.336 1.01856ZM12.4215 21.1796L26.9879 13.5697L17.9179 23.4254C17.7693 23.5868 17.664 23.7844 17.6121 23.9995L15.8632 31.2441L12.4215 21.1796ZM18.1436 33.1463C18.0832 33.203 18.0225 33.2537 17.9619 33.3003L19.5845 26.5797L22.536 29.0104L18.1436 33.1463ZM40.4322 3.55287L34.4684 33.6683C34.4109 33.9565 34.2276 34.6272 33.7561 34.6272C33.5232 34.6272 33.2306 34.4973 32.931 34.2615L25.2557 27.9415C25.2547 27.9405 25.2534 27.9395 25.2521 27.9388L20.6851 24.1779L33.8014 9.92521C34.2213 9.46894 34.2594 8.77011 33.8916 8.26888C33.5235 7.76766 32.8566 7.60998 32.311 7.89514L10.7382 19.1657L3.0855 16.9266L39.473 2.72185C39.7803 2.60174 39.9949 2.57658 40.1206 2.57658C40.1976 2.57658 40.3348 2.58598 40.3856 2.65005C40.4526 2.73359 40.5378 3.01843 40.4322 3.55287Z" fill="#FFCC63"/>
</svg>
