<svg width="27" height="23" viewBox="0 0 27 23" fill="none" xmlns="http://www.w3.org/2000/svg">
<path d="M25.973 0.62488C25.6508 0.221878 25.1681 0 24.6138 0C24.3125 0 23.9933 0.0648344 23.6653 0.193063L1.33484 8.91031C0.149783 9.3728 -0.00982061 10.0668 0.000443935 10.4394C0.0107085 10.8119 0.208553 11.4957 1.41735 11.889C1.4246 11.8913 1.43185 11.8935 1.43909 11.8956L6.07102 13.2511L8.57598 20.5764C8.91752 21.575 9.68414 22.1954 10.577 22.1954C11.1399 22.1954 11.6936 21.9542 12.1782 21.4981L15.0432 18.8003L19.1988 22.2222C19.1992 22.2226 19.1998 22.2228 19.2002 22.2232L19.2396 22.2557C19.2433 22.2586 19.2471 22.2617 19.2507 22.2646C19.7126 22.6309 20.2168 22.8244 20.7093 22.8246H20.7095C21.6717 22.8246 22.438 22.0962 22.6612 20.9691L26.32 2.49355C26.4669 1.75197 26.3437 1.0884 25.973 0.62488ZM7.62057 12.9936L16.557 8.32495L10.9926 14.3714C10.9014 14.4704 10.8368 14.5917 10.805 14.7236L9.73205 19.1681L7.62057 12.9936ZM11.131 20.3352C11.094 20.3699 11.0568 20.401 11.0195 20.4296L12.015 16.3066L13.8258 17.7978L11.131 20.3352ZM24.805 2.17967L21.1462 20.6554C21.111 20.8322 20.9985 21.2437 20.7093 21.2437C20.5664 21.2437 20.3869 21.164 20.2031 21.0193L15.4943 17.142C15.4937 17.1414 15.4929 17.1408 15.4921 17.1404L12.6902 14.8331L20.7371 6.08909C20.9947 5.80917 21.018 5.38043 20.7924 5.07293C20.5666 4.76543 20.1574 4.6687 19.8227 4.84365L6.58787 11.7581L1.89295 10.3844L24.2165 1.66985C24.4051 1.59616 24.5368 1.58073 24.6138 1.58073C24.6611 1.58073 24.7453 1.58649 24.7765 1.6258C24.8175 1.67705 24.8698 1.85179 24.805 2.17967Z" fill="#FFCC63"/>
</svg>
