<svg width="35" height="36" viewBox="0 0 35 36" fill="none" xmlns="http://www.w3.org/2000/svg">
<path d="M16.1866 0.00523905C13.2972 0.0401184 7.08533 0.514927 3.6109 3.70244C1.02645 6.26326 0.124092 10.0494 0.0183289 14.7311C-0.0694319 19.3959 -0.175195 28.1562 8.26897 30.5415V34.1746C8.26897 34.1746 8.21609 35.6283 9.17696 35.9264C10.3606 36.3011 11.0346 35.1827 12.1597 33.9811L14.2581 31.6081C20.0357 32.0886 24.4608 30.9814 24.9705 30.8172C26.1429 30.4425 32.7464 29.5986 33.8254 20.8372C34.9325 11.7888 33.2864 6.08774 30.3149 3.50892H30.2969C29.4002 2.68307 25.7964 0.0569954 17.7449 0.0277418C17.7449 0.0277418 17.1474 -0.0127632 16.1866 0.00411391V0.00523905ZM16.2856 2.54918C17.1058 2.54355 17.6042 2.57843 17.6042 2.57843C24.4192 2.59643 27.672 4.64756 28.4393 5.3384C30.9416 7.48291 32.2311 12.6225 31.2871 20.1767C30.3903 27.5014 25.0347 27.9649 24.0434 28.2811C23.6215 28.4161 19.724 29.377 14.8139 29.0608C14.8139 29.0608 11.1572 33.4736 10.0141 34.61C9.83291 34.8092 9.62139 34.8677 9.48637 34.8384C9.29285 34.7912 9.23434 34.5515 9.24559 34.223L9.28047 28.1933C2.11896 26.2131 2.54089 18.741 2.6174 14.8379C2.70516 10.9348 3.43763 7.74169 5.61814 5.57918C8.55363 2.92497 13.8283 2.56718 16.2833 2.54918H16.2856ZM16.8257 6.45116C16.7667 6.45056 16.7082 6.46164 16.6536 6.48375C16.599 6.50587 16.5492 6.53857 16.5073 6.57999C16.4653 6.62141 16.432 6.67072 16.4092 6.72508C16.3864 6.77944 16.3746 6.83777 16.3745 6.89671C16.3745 7.14874 16.5792 7.34789 16.8257 7.34789C17.9412 7.32668 19.05 7.52653 20.0879 7.93592C21.1259 8.34531 22.0725 8.95615 22.8733 9.73319C24.5081 11.3208 25.3047 13.454 25.3351 16.2432C25.3351 16.4896 25.5342 16.6944 25.7863 16.6944V16.6764C25.905 16.6767 26.0191 16.6301 26.1036 16.5466C26.1882 16.4631 26.2362 16.3496 26.2374 16.2309C26.2921 14.918 26.0792 13.6077 25.6117 12.3797C25.1442 11.1517 24.4318 10.0315 23.518 9.08736C21.7369 7.34677 19.4799 6.45003 16.8257 6.45003V6.45116ZM10.895 7.48291C10.5766 7.43638 10.2518 7.50031 9.97468 7.66406H9.95105C9.30777 8.04114 8.72827 8.51773 8.23409 9.07611C7.82342 9.55092 7.60064 10.0314 7.54213 10.4938C7.50725 10.7694 7.53088 11.0451 7.61302 11.3084L7.64227 11.3264C8.1047 12.6856 8.7089 13.993 9.44699 15.2239C10.3978 16.9532 11.5678 18.5524 12.9282 19.9821L12.9687 20.0406L13.0328 20.0878L13.0733 20.1351L13.1206 20.1756C14.5554 21.5399 16.1585 22.7155 17.8912 23.6737C19.8714 24.7515 21.073 25.2612 21.7943 25.4728V25.484C22.0058 25.5481 22.1982 25.5774 22.3917 25.5774C23.0064 25.5324 23.5882 25.2828 24.0445 24.8686C24.6004 24.3743 25.0717 23.7924 25.4397 23.146V23.1347C25.7851 22.4844 25.6681 21.8689 25.1697 21.4526C24.1715 20.5801 23.092 19.8051 21.9462 19.1382C21.1788 18.7219 20.3991 18.974 20.0829 19.3959L19.409 20.2454C19.0636 20.6673 18.4357 20.6088 18.4357 20.6088L18.4177 20.62C13.736 19.424 12.4871 14.6838 12.4871 14.6838C12.4871 14.6838 12.4286 14.0391 12.8618 13.7106L13.7056 13.031C14.1096 12.7024 14.3909 11.9238 13.9577 11.1554C13.2954 10.0079 12.5221 8.92821 11.6489 7.93184C11.458 7.69695 11.1902 7.53713 10.8928 7.48066L10.895 7.48291ZM17.6042 8.81958C17.0068 8.81958 17.0068 9.72194 17.6099 9.72194C18.3528 9.73399 19.086 9.89232 19.7677 10.1879C20.4494 10.4835 21.0662 10.9105 21.5827 11.4445C22.054 11.9643 22.4161 12.5735 22.6476 13.2358C22.8792 13.8981 22.9754 14.6002 22.9307 15.3004C22.9327 15.4189 22.9811 15.5319 23.0654 15.6151C23.1497 15.6984 23.2633 15.7454 23.3818 15.7459L23.3998 15.7696C23.5192 15.7687 23.6335 15.7209 23.7179 15.6364C23.8023 15.552 23.8501 15.4378 23.851 15.3184C23.8915 13.5305 23.3357 12.0307 22.2454 10.8291C21.1496 9.62743 19.6205 8.95347 17.6684 8.81958H17.6042V8.81958ZM18.3435 11.2454C17.728 11.2274 17.7044 12.1477 18.3142 12.1657C19.7971 12.2422 20.5172 12.9916 20.6117 14.533C20.6138 14.65 20.6616 14.7616 20.7449 14.8438C20.8281 14.926 20.9403 14.9724 21.0573 14.973H21.0753C21.1355 14.9704 21.1945 14.9558 21.249 14.9302C21.3035 14.9045 21.3523 14.8683 21.3926 14.8236C21.433 14.7789 21.464 14.7265 21.4839 14.6697C21.5038 14.6129 21.5121 14.5526 21.5085 14.4925C21.4027 12.483 20.3068 11.3511 18.3615 11.2465H18.3435V11.2454Z" fill="#FFCC63"/>
</svg>
