<svg width="37" height="36" viewBox="0 0 37 36" fill="none" xmlns="http://www.w3.org/2000/svg">
<path fill-rule="evenodd" clip-rule="evenodd" d="M30.836 5.23233C29.1834 3.56882 27.2171 2.24979 25.051 1.35164C22.8849 0.453498 20.5622 -0.00590242 18.2173 5.72492e-05C8.38471 5.72492e-05 0.380309 8.00247 0.376334 17.8391C0.376334 20.9828 1.19704 24.051 2.75699 26.7576L0.227295 36L9.68433 33.518C12.3003 34.942 15.231 35.6887 18.2094 35.69H18.2173C28.048 35.69 36.0524 27.6876 36.0563 17.851C36.0631 15.5071 35.6052 13.1851 34.7092 11.0191C33.8131 8.85325 32.4967 6.88641 30.836 5.23233V5.23233ZM18.2173 32.6794H18.2114C15.5555 32.6797 12.9486 31.9651 10.664 30.6107L10.1235 30.2888L4.51168 31.7613L6.00803 26.2906L5.6563 25.7302C4.17145 23.3663 3.3854 20.6306 3.38892 17.8391C3.39289 9.66377 10.044 3.01264 18.2233 3.01264C20.1712 3.00831 22.1007 3.39037 23.9 4.1367C25.6993 4.88302 27.3327 5.9788 28.7057 7.36061C30.0861 8.73583 31.1802 10.371 31.9247 12.1716C32.6693 13.9722 33.0497 15.9025 33.0438 17.851C33.0398 26.0263 26.3887 32.6794 18.2173 32.6794ZM26.3509 21.573C25.9038 21.3484 23.7139 20.2714 23.3045 20.1223C22.8972 19.9733 22.6011 19.8998 22.303 20.3449C22.0049 20.79 21.1504 21.7936 20.8901 22.0917C20.6298 22.3897 20.3695 22.4255 19.9243 22.2029C19.4792 21.9804 18.0425 21.5094 16.3394 19.9912C15.014 18.8088 14.1197 17.3502 13.8594 16.9031C13.5991 16.456 13.8316 16.2155 14.0562 15.993C14.2569 15.7942 14.5013 15.4723 14.7239 15.212C14.9464 14.9517 15.0199 14.7669 15.169 14.4688C15.318 14.1707 15.2445 13.9104 15.1312 13.6878C15.0199 13.4633 14.1277 11.2694 13.7561 10.3772C13.3964 9.51274 13.0288 9.628 12.7545 9.61607C12.4705 9.60446 12.1863 9.59915 11.902 9.60017C11.676 9.60593 11.4536 9.65833 11.2488 9.75408C11.0439 9.84983 10.8611 9.98686 10.7117 10.1566C10.3024 10.6037 9.15177 11.6808 9.15177 13.8746C9.15177 16.0685 10.7495 18.1888 10.972 18.4869C11.1946 18.785 14.1158 23.286 18.5869 25.2175C19.6521 25.6765 20.4827 25.9508 21.1286 26.1574C22.1957 26.4973 23.1674 26.4476 23.9365 26.3343C24.7929 26.2071 26.5735 25.2572 26.9451 24.216C27.3167 23.1747 27.3167 22.2824 27.2054 22.0956C27.0941 21.9088 26.794 21.7956 26.3509 21.573" fill="#FFCC63"/>
</svg>
